<?xml version="1.0" standalone="no"?><!DOCTYPE svg PUBLIC "-//W3C//DTD SVG 1.1//EN" "http://www.w3.org/Graphics/SVG/1.1/DTD/svg11.dtd"><svg t="1650210591251" class="icon" viewBox="0 0 1024 1024" version="1.1" xmlns="http://www.w3.org/2000/svg" p-id="4227" xmlns:xlink="http://www.w3.org/1999/xlink" width="200" height="200"><defs><style type="text/css">@font-face { font-family: feedback-iconfont; src: url("//at.alicdn.com/t/font_1031158_u69w8yhxdu.woff2?t=1630033759944") format("woff2"), url("//at.alicdn.com/t/font_1031158_u69w8yhxdu.woff?t=1630033759944") format("woff"), url("//at.alicdn.com/t/font_1031158_u69w8yhxdu.ttf?t=1630033759944") format("truetype"); }
</style></defs><path d="M512 2.016q-139.008 0-256.512 68.512T69.472 256.544 0.96 513.056t68.512 256.512 186.016 186.016T512 1024.096t256.512-68.512 186.016-186.016 68.512-256.512-68.512-256.512-186.016-186.016T512 2.016z m200 524.992l-291.008 247.008q-6.016 6.016-15.008 6.016-8 0-14.496-5.504t-6.496-14.496V265.024q0-8 6.496-13.504t15.008-5.504 14.496 6.016l291.008 247.008q6.016 6.016 6.016 14.016t-6.016 14.016z" p-id="4228" data-spm-anchor-id="a313x.7781069.0.i1" class="selected" fill="#ffffff"></path></svg>