<svg id="kity_svg_6" xmlns="http://www.w3.org/2000/svg" xmlns:xlink="http://www.w3.org/1999/xlink" version="1.1" width="1381" height="1001" style="background: rgb(251, 251, 251); visibility: visible;" viewBox="0 0 1381 1001"><defs id="kity_defs_7"><linearGradient id="kity_linearGradient_17" x1="0" y1="0" x2="0" y2="1"><stop id="kity_stop_18" offset="0" stop-color="rgb(255, 255, 255)"></stop><stop id="kity_stop_19" offset="1" stop-color="rgb(204, 204, 204)"></stop></linearGradient><marker id="kity_marker_2" orient="auto" refX="6" refY="0" viewBox="-7 -7 14 14" markerWidth="7" markerHeight="7" markerUnits="userSpaceOnUse"><path id="kity_path_3" fill="rgb(123, 115, 191)" stroke="none" d="M6,0A6,6,0,1,1,-6,0A6,6,0,1,1,6,0"></path></marker></defs><g id="kity_g_8"><g id="minder1" text-rendering="optimize-speed"><g id="minder_connect_group1"><path id="kity_path_31" fill="none" stroke="rgb(123, 115, 191)" stroke-width="1" d="M62.000020667910576,509.5000184327364A57.5,336,0,0,1,119.50002066791058,173.5000184327364"></path><path id="kity_path_33" fill="none" stroke="rgb(123, 115, 191)" stroke-width="1" d="M218.50002066791058,173.5000184327364C226.50002066791058,173.5000184327364,226.50002066791058,123.5000184327364,234.50002066791058,123.5000184327364"></path><path id="kity_path_35" fill="none" stroke="rgb(123, 115, 191)" stroke-width="1" d="M293.5000206679106,123.5000184327364C301.5000206679106,123.5000184327364,301.5000206679106,61.5000184327364,309.5000206679106,61.5000184327364"></path><path id="kity_path_37" fill="none" stroke="rgb(123, 115, 191)" stroke-width="1" d="M390.5000206679106,61.5000184327364C398.5000206679106,61.5000184327364,398.5000206679106,42.5000184327364,406.5000206679106,42.5000184327364"></path><path id="kity_path_39" fill="none" stroke="rgb(123, 115, 191)" stroke-width="1" d="M441.5000206679106,42.5000184327364C449.5000206679106,42.5000184327364,449.5000206679106,29.500018432736397,457.5000206679106,29.500018432736397"></path><path id="kity_path_41" fill="none" stroke="rgb(123, 115, 191)" stroke-width="1" d="M441.5000206679106,42.5000184327364C449.5000206679106,42.5000184327364,449.5000206679106,55.5000184327364,457.5000206679106,55.5000184327364"></path><path id="kity_path_43" fill="none" stroke="rgb(123, 115, 191)" stroke-width="1" d="M390.5000206679106,61.5000184327364C398.5000206679106,61.5000184327364,398.5000206679106,81.5000184327364,406.5000206679106,81.5000184327364"></path><path id="kity_path_45" fill="none" stroke="rgb(123, 115, 191)" stroke-width="1" d="M293.5000206679106,123.5000184327364C301.5000206679106,123.5000184327364,301.5000206679106,107.5000184327364,309.5000206679106,107.5000184327364"></path><path id="kity_path_47" fill="none" stroke="rgb(123, 115, 191)" stroke-width="1" d="M344.5000206679106,107.5000184327364C352.5000206679106,107.5000184327364,352.5000206679106,107.5000184327364,360.5000206679106,107.5000184327364"></path><path id="kity_path_49" fill="none" stroke="rgb(123, 115, 191)" stroke-width="1" d="M293.5000206679106,123.5000184327364C301.5000206679106,123.5000184327364,301.5000206679106,133.5000184327364,309.5000206679106,133.5000184327364"></path><path id="kity_path_51" fill="none" stroke="rgb(123, 115, 191)" stroke-width="1" d="M435.5000206679106,133.5000184327364C443.5000206679106,133.5000184327364,443.5000206679106,133.5000184327364,451.5000206679106,133.5000184327364"></path><path id="kity_path_53" fill="none" stroke="rgb(123, 115, 191)" stroke-width="1" d="M556.5000206679106,133.5000184327364C564.5000206679106,133.5000184327364,564.5000206679106,133.5000184327364,572.5000206679106,133.5000184327364"></path><path id="kity_path_55" fill="none" stroke="rgb(123, 115, 191)" stroke-width="1" d="M293.5000206679106,123.5000184327364C299.0000206679106,123.5000184327364,299.0000206679106,156.5000184327364,304.5000206679106,156.5000184327364"></path><path id="kity_path_57" fill="none" stroke="rgb(123, 115, 191)" stroke-width="1" d="M441.5000206679106,156.5000184327364C449.5000206679106,156.5000184327364,449.5000206679106,156.5000184327364,457.5000206679106,156.5000184327364"></path><path id="kity_path_59" fill="none" stroke="rgb(123, 115, 191)" stroke-width="1" d="M293.5000206679106,123.5000184327364C301.5000206679106,123.5000184327364,301.5000206679106,185.5000184327364,309.5000206679106,185.5000184327364"></path><path id="kity_path_61" fill="none" stroke="rgb(123, 115, 191)" stroke-width="1" d="M413.5000206679106,185.5000184327364C421.5000206679106,185.5000184327364,421.5000206679106,185.5000184327364,429.5000206679106,185.5000184327364"></path><path id="kity_path_63" fill="none" stroke="rgb(123, 115, 191)" stroke-width="1" d="M218.50002066791058,173.5000184327364C226.50002066791058,173.5000184327364,226.50002066791058,223.5000184327364,234.50002066791058,223.5000184327364"></path><path id="kity_path_65" fill="none" stroke="rgb(123, 115, 191)" stroke-width="1" d="M269.5000206679106,223.5000184327364C277.5000206679106,223.5000184327364,277.5000206679106,210.5000184327364,285.5000206679106,210.5000184327364"></path><path id="kity_path_67" fill="none" stroke="rgb(123, 115, 191)" stroke-width="1" d="M375.5000206679106,210.5000184327364C383.5000206679106,210.5000184327364,383.5000206679106,210.5000184327364,391.5000206679106,210.5000184327364"></path><path id="kity_path_69" fill="none" stroke="rgb(123, 115, 191)" stroke-width="1" d="M269.5000206679106,223.5000184327364C277.5000206679106,223.5000184327364,277.5000206679106,236.5000184327364,285.5000206679106,236.5000184327364"></path><path id="kity_path_71" fill="none" stroke="rgb(123, 115, 191)" stroke-width="1" d="M388.5000206679106,236.5000184327364C396.5000206679106,236.5000184327364,396.5000206679106,236.5000184327364,404.5000206679106,236.5000184327364"></path><path id="kity_path_73" fill="none" stroke="rgb(123, 115, 191)" stroke-width="1" d="M62.000020667910576,509.5000184327364A57.5,47,0,0,1,119.50002066791058,462.5000184327364"></path><path id="kity_path_75" fill="none" stroke="rgb(123, 115, 191)" stroke-width="1" d="M218.50002066791058,462.5000184327364C226.50002066791058,462.5000184327364,226.50002066791058,317.5000184327364,234.50002066791058,317.5000184327364"></path><path id="kity_path_77" fill="none" stroke="rgb(123, 115, 191)" stroke-width="1" d="M293.5000206679106,317.5000184327364C301.5000206679106,317.5000184327364,301.5000206679106,270.5000184327364,309.5000206679106,270.5000184327364"></path><path id="kity_path_79" fill="none" stroke="rgb(123, 115, 191)" stroke-width="1" d="M293.5000206679106,317.5000184327364C301.5000206679106,317.5000184327364,301.5000206679106,364.5000184327364,309.5000206679106,364.5000184327364"></path><path id="kity_path_81" fill="none" stroke="rgb(123, 115, 191)" stroke-width="1" d="M392.5000206679106,364.5000184327364C400.5000206679106,364.5000184327364,400.5000206679106,296.5000184327364,408.5000206679106,296.5000184327364"></path><path id="kity_path_83" fill="none" stroke="rgb(123, 115, 191)" stroke-width="1" d="M467.5000206679106,296.5000184327364C475.5000206679106,296.5000184327364,475.5000206679106,296.5000184327364,483.5000206679106,296.5000184327364"></path><path id="kity_path_85" fill="none" stroke="rgb(123, 115, 191)" stroke-width="1" d="M392.5000206679106,364.5000184327364C400.5000206679106,364.5000184327364,400.5000206679106,335.5000184327364,408.5000206679106,335.5000184327364"></path><path id="kity_path_87" fill="none" stroke="rgb(123, 115, 191)" stroke-width="1" d="M467.5000206679106,335.5000184327364C475.5000206679106,335.5000184327364,475.5000206679106,322.5000184327364,483.5000206679106,322.5000184327364"></path><path id="kity_path_89" fill="none" stroke="rgb(123, 115, 191)" stroke-width="1" d="M467.5000206679106,335.5000184327364C475.5000206679106,335.5000184327364,475.5000206679106,348.5000184327364,483.5000206679106,348.5000184327364"></path><path id="kity_path_91" fill="none" stroke="rgb(123, 115, 191)" stroke-width="1" d="M392.5000206679106,364.5000184327364C400.5000206679106,364.5000184327364,400.5000206679106,432.5000184327364,408.5000206679106,432.5000184327364"></path><path id="kity_path_93" fill="none" stroke="rgb(123, 115, 191)" stroke-width="1" d="M467.5000206679106,432.5000184327364C475.5000206679106,432.5000184327364,475.5000206679106,432.5000184327364,483.5000206679106,432.5000184327364"></path><path id="kity_path_95" fill="none" stroke="rgb(123, 115, 191)" stroke-width="1" d="M603.5000206679106,432.5000184327364C611.5000206679106,432.5000184327364,611.5000206679106,400.5000184327364,619.5000206679106,400.5000184327364"></path><path id="kity_path_97" fill="none" stroke="rgb(123, 115, 191)" stroke-width="1" d="M688.5000206679106,400.5000184327364C696.5000206679106,400.5000184327364,696.5000206679106,374.5000184327364,704.5000206679106,374.5000184327364"></path><path id="kity_path_99" fill="none" stroke="rgb(123, 115, 191)" stroke-width="1" d="M688.5000206679106,400.5000184327364C696.5000206679106,400.5000184327364,696.5000206679106,400.5000184327364,704.5000206679106,400.5000184327364"></path><path id="kity_path_101" fill="none" stroke="rgb(123, 115, 191)" stroke-width="1" d="M688.5000206679106,400.5000184327364C696.5000206679106,400.5000184327364,696.5000206679106,426.5000184327364,704.5000206679106,426.5000184327364"></path><path id="kity_path_103" fill="none" stroke="rgb(123, 115, 191)" stroke-width="1" d="M603.5000206679106,432.5000184327364C611.5000206679106,432.5000184327364,611.5000206679106,465.5000184327364,619.5000206679106,465.5000184327364"></path><path id="kity_path_105" fill="none" stroke="rgb(123, 115, 191)" stroke-width="1" d="M707.5000206679106,465.5000184327364C715.5000206679106,465.5000184327364,715.5000206679106,452.5000184327364,723.5000206679106,452.5000184327364"></path><path id="kity_path_107" fill="none" stroke="rgb(123, 115, 191)" stroke-width="1" d="M707.5000206679106,465.5000184327364C715.5000206679106,465.5000184327364,715.5000206679106,478.5000184327364,723.5000206679106,478.5000184327364"></path><path id="kity_path_109" fill="none" stroke="rgb(123, 115, 191)" stroke-width="1" d="M218.50002066791058,462.5000184327364C226.50002066791058,462.5000184327364,226.50002066791058,607.5000184327364,234.50002066791058,607.5000184327364"></path><path id="kity_path_111" fill="none" stroke="rgb(123, 115, 191)" stroke-width="1" d="M293.5000206679106,607.5000184327364C301.5000206679106,607.5000184327364,301.5000206679106,561.5000184327364,309.5000206679106,561.5000184327364"></path><path id="kity_path_113" fill="none" stroke="rgb(123, 115, 191)" stroke-width="1" d="M404.5000206679106,561.5000184327364C412.5000206679106,561.5000184327364,412.5000206679106,505.5000184327364,420.5000206679106,505.5000184327364"></path><path id="kity_path_115" fill="none" stroke="rgb(123, 115, 191)" stroke-width="1" d="M574.5000206679106,505.5000184327364C582.5000206679106,505.5000184327364,582.5000206679106,505.5000184327364,590.5000206679106,505.5000184327364"></path><path id="kity_path_117" fill="none" stroke="rgb(123, 115, 191)" stroke-width="1" d="M404.5000206679106,561.5000184327364C412.5000206679106,561.5000184327364,412.5000206679106,531.5000184327364,420.5000206679106,531.5000184327364"></path><path id="kity_path_119" fill="none" stroke="rgb(123, 115, 191)" stroke-width="1" d="M577.5000206679106,531.5000184327364C585.5000206679106,531.5000184327364,585.5000206679106,531.5000184327364,593.5000206679106,531.5000184327364"></path><path id="kity_path_121" fill="none" stroke="rgb(123, 115, 191)" stroke-width="1" d="M404.5000206679106,561.5000184327364C412.5000206679106,561.5000184327364,412.5000206679106,557.5000184327364,420.5000206679106,557.5000184327364"></path><path id="kity_path_123" fill="none" stroke="rgb(123, 115, 191)" stroke-width="1" d="M597.5000206679106,557.5000184327364C605.5000206679106,557.5000184327364,605.5000206679106,557.5000184327364,613.5000206679106,557.5000184327364"></path><path id="kity_path_125" fill="none" stroke="rgb(123, 115, 191)" stroke-width="1" d="M404.5000206679106,561.5000184327364C412.5000206679106,561.5000184327364,412.5000206679106,583.5000184327364,420.5000206679106,583.5000184327364"></path><path id="kity_path_127" fill="none" stroke="rgb(123, 115, 191)" stroke-width="1" d="M640.5000206679106,583.5000184327364C648.5000206679106,583.5000184327364,648.5000206679106,583.5000184327364,656.5000206679106,583.5000184327364"></path><path id="kity_path_129" fill="none" stroke="rgb(123, 115, 191)" stroke-width="1" d="M404.5000206679106,561.5000184327364C412.5000206679106,561.5000184327364,412.5000206679106,618.5000184327364,420.5000206679106,618.5000184327364"></path><path id="kity_path_131" fill="none" stroke="rgb(123, 115, 191)" stroke-width="1" d="M471.5000206679106,618.5000184327364C479.5000206679106,618.5000184327364,479.5000206679106,618.5000184327364,487.5000206679106,618.5000184327364"></path><path id="kity_path_133" fill="none" stroke="rgb(123, 115, 191)" stroke-width="1" d="M293.5000206679106,607.5000184327364C301.5000206679106,607.5000184327364,301.5000206679106,653.5000184327364,309.5000206679106,653.5000184327364"></path><path id="kity_path_135" fill="none" stroke="rgb(123, 115, 191)" stroke-width="1" d="M344.5000206679106,653.5000184327364C352.5000206679106,653.5000184327364,352.5000206679106,653.5000184327364,360.5000206679106,653.5000184327364"></path><path id="kity_path_137" fill="none" stroke="rgb(123, 115, 191)" stroke-width="1" d="M62.000020667910576,509.5000184327364A57.5,336,0,0,0,119.50002066791058,845.5000184327364"></path><path id="kity_path_139" fill="none" stroke="rgb(123, 115, 191)" stroke-width="1" d="M288.5000206679106,845.5000184327364C296.5000206679106,845.5000184327364,296.5000206679106,845.5000184327364,304.5000206679106,845.5000184327364"></path><path id="kity_path_141" fill="none" stroke="rgb(123, 115, 191)" stroke-width="1" d="M363.5000206679106,845.5000184327364C371.5000206679106,845.5000184327364,371.5000206679106,718.5000184327364,379.5000206679106,718.5000184327364"></path><path id="kity_path_143" fill="none" stroke="rgb(123, 115, 191)" stroke-width="1" d="M472.5000206679106,718.5000184327364C480.5000206679106,718.5000184327364,480.5000206679106,686.5000184327364,488.5000206679106,686.5000184327364"></path><path id="kity_path_145" fill="none" stroke="rgb(123, 115, 191)" stroke-width="1" d="M472.5000206679106,718.5000184327364C480.5000206679106,718.5000184327364,480.5000206679106,712.5000184327364,488.5000206679106,712.5000184327364"></path><path id="kity_path_147" fill="none" stroke="rgb(123, 115, 191)" stroke-width="1" d="M472.5000206679106,718.5000184327364C480.5000206679106,718.5000184327364,480.5000206679106,751.5000184327364,488.5000206679106,751.5000184327364"></path><path id="kity_path_149" fill="none" stroke="rgb(123, 115, 191)" stroke-width="1" d="M534.5000206679106,751.5000184327364C542.5000206679106,751.5000184327364,542.5000206679106,738.5000184327364,550.5000206679106,738.5000184327364"></path><path id="kity_path_151" fill="none" stroke="rgb(123, 115, 191)" stroke-width="1" d="M534.5000206679106,751.5000184327364C542.5000206679106,751.5000184327364,542.5000206679106,764.5000184327364,550.5000206679106,764.5000184327364"></path><path id="kity_path_153" fill="none" stroke="rgb(123, 115, 191)" stroke-width="1" d="M969.5000206679106,764.5000184327364C977.5000206679106,764.5000184327364,977.5000206679106,764.5000184327364,985.5000206679106,764.5000184327364"></path><path id="kity_path_155" fill="none" stroke="rgb(123, 115, 191)" stroke-width="1" d="M363.5000206679106,845.5000184327364C371.5000206679106,845.5000184327364,371.5000206679106,816.5000184327364,379.5000206679106,816.5000184327364"></path><path id="kity_path_157" fill="none" stroke="rgb(123, 115, 191)" stroke-width="1" d="M494.5000206679106,816.5000184327364C502.5000206679106,816.5000184327364,502.5000206679106,790.5000184327364,510.5000206679106,790.5000184327364"></path><path id="kity_path_159" fill="none" stroke="rgb(123, 115, 191)" stroke-width="1" d="M494.5000206679106,816.5000184327364C502.5000206679106,816.5000184327364,502.5000206679106,816.5000184327364,510.5000206679106,816.5000184327364"></path><path id="kity_path_161" fill="none" stroke="rgb(123, 115, 191)" stroke-width="1" d="M494.5000206679106,816.5000184327364C502.5000206679106,816.5000184327364,502.5000206679106,842.5000184327364,510.5000206679106,842.5000184327364"></path><path id="kity_path_163" fill="none" stroke="rgb(123, 115, 191)" stroke-width="1" d="M363.5000206679106,845.5000184327364C371.5000206679106,845.5000184327364,371.5000206679106,868.5000184327364,379.5000206679106,868.5000184327364"></path><path id="kity_path_165" fill="none" stroke="rgb(123, 115, 191)" stroke-width="1" d="M363.5000206679106,845.5000184327364C371.5000206679106,845.5000184327364,371.5000206679106,894.5000184327364,379.5000206679106,894.5000184327364"></path><path id="kity_path_167" fill="none" stroke="rgb(123, 115, 191)" stroke-width="1" d="M363.5000206679106,845.5000184327364C371.5000206679106,845.5000184327364,371.5000206679106,920.5000184327364,379.5000206679106,920.5000184327364"></path><path id="kity_path_169" fill="none" stroke="rgb(123, 115, 191)" stroke-width="1" d="M363.5000206679106,845.5000184327364C371.5000206679106,845.5000184327364,371.5000206679106,946.5000184327364,379.5000206679106,946.5000184327364"></path><path id="kity_path_171" fill="none" stroke="rgb(123, 115, 191)" stroke-width="1" d="M363.5000206679106,845.5000184327364C371.5000206679106,845.5000184327364,371.5000206679106,972.5000184327364,379.5000206679106,972.5000184327364"></path></g><g id="minder_node1"><path id="node_outline1" fill="rgb(123, 115, 191)" stroke="rgb(123, 115, 191)" d="M25.500020667910576,495.5000184327364h73a5,5,0,0,1,5,5v18a5,5,0,0,1,-5,5h-73a5,5,0,0,1,-5,-5v-18a5,5,0,0,1,5,-5z" stroke-width="3"></path><g id="node_text1" fill="white"><text id="kity_text_22" text-rendering="inherit" font-size="16" dy=".8em" y="499.1000182658434" x="32.500020667910576">ThreeJS</text></g></g><g id="kity_g_12"><path id="kity_path_13" fill="none" stroke="none" d="M32.500020667910576,509.5000184327364h0v0h0z"></path></g><g id="kity_g_14"><path id="kity_path_15" fill="none" stroke="none" d="M32.500020667910576,509.5000184327364h0v0h0z"></path><path id="kity_path_16" fill="none" stroke="none"></path></g><g id="minder_node2"><g id="node_expander21" style="cursor: pointer;"><path id="kity_path_447" fill="white" stroke="gray" d="M120.50002311170101,173.50000841915607A6,6,0,1,1,108.50002311170101,173.50000841915607A6,6,0,1,1,120.50002311170101,173.50000841915607"></path><path id="kity_path_448" fill="none" stroke="gray" d="M110.00002311170101,173.50000841915607L119.00002311170101,173.50000841915607"></path></g><path id="node_outline22" fill="rgb(239, 238, 246)" stroke="rgb(123, 115, 191)" d="M124.50002391636372,160.50000841915607h91a3,3,0,0,1,3,3v20a3,3,0,0,1,-3,3h-91a3,3,0,0,1,-3,-3v-20a3,3,0,0,1,3,-3z" stroke-width="1"></path><g id="node_text22" fill="black"><text id="kity_text_213" text-rendering="inherit" font-size="14" dy=".8em" y="164.40000845193862" x="141.50002391636372">场景搭建</text></g></g><g id="minder_node3"><g id="node_expander15" style="cursor: pointer;"><path id="kity_path_429" fill="white" stroke="gray" d="M234.50002650916576,123.50000692903996A6,6,0,1,1,222.50002650916576,123.50000692903996A6,6,0,1,1,234.50002650916576,123.50000692903996"></path><path id="kity_path_430" fill="none" stroke="gray" d="M224.00002650916576,123.50000692903996L233.00002650916576,123.50000692903996"></path></g><path id="node_outline16" fill="none" stroke="none" d="M239.5000268369913,114.50000692903996h49a5,5,0,0,1,5,5v8a5,5,0,0,1,-5,5h-49a5,5,0,0,1,-5,-5v-8a5,5,0,0,1,5,-5z"></path><g id="node_text16" fill="black"><text id="kity_text_201" text-rendering="inherit" font-size="12" dy=".8em" y="115.70000700255235" x="239.5000268369913">必要条件</text></g></g><g id="minder_node4"><g id="node_expander5" style="cursor: pointer;"><path id="kity_path_399" fill="white" stroke="gray" d="M309.50002874433994,61.50000508129597A6,6,0,1,1,297.50002874433994,61.50000508129597A6,6,0,1,1,309.50002874433994,61.50000508129597"></path><path id="kity_path_400" fill="none" stroke="gray" d="M299.00002874433994,61.50000508129597L308.00002874433994,61.50000508129597"></path></g><path id="node_outline6" fill="none" stroke="none" d="M314.5000290721655,52.50000508129597h71a5,5,0,0,1,5,5v8a5,5,0,0,1,-5,5h-71a5,5,0,0,1,-5,-5v-8a5,5,0,0,1,5,-5z"></path><g id="node_text6" fill="black"><text id="kity_text_181" text-rendering="inherit" font-size="12" dy=".8em" y="53.700005154808366" x="314.5000290721655">场景：Scene</text></g></g><g id="minder_node5"><g id="node_expander3" style="cursor: pointer;"><path id="kity_path_393" fill="white" stroke="gray" d="M406.5000316351652,42.50000451505184A6,6,0,1,1,394.5000316351652,42.50000451505184A6,6,0,1,1,406.5000316351652,42.50000451505184"></path><path id="kity_path_394" fill="none" stroke="gray" d="M396.0000316351652,42.50000451505184L405.0000316351652,42.50000451505184"></path></g><path id="node_outline4" fill="none" stroke="none" d="M411.50003196299076,33.50000451505184h25a5,5,0,0,1,5,5v8a5,5,0,0,1,-5,5h-25a5,5,0,0,1,-5,-5v-8a5,5,0,0,1,5,-5z"></path><g id="node_text4" fill="black"><text id="kity_text_177" text-rendering="inherit" font-size="12" dy=".8em" y="34.70000458856424" x="411.50003196299076">光照</text></g></g><g id="minder_node6"><g id="node_expander1" display="none" style="cursor: pointer;"><path id="kity_path_387" fill="white" stroke="gray" d="M457.50003315508366,29.50000412762165A6,6,0,1,1,445.50003315508366,29.50000412762165A6,6,0,1,1,457.50003315508366,29.50000412762165"></path><path id="kity_path_388" fill="none" stroke="gray"></path></g><path id="node_outline2" fill="none" stroke="none" d="M462.5000334829092,20.50000412762165h127a5,5,0,0,1,5,5v8a5,5,0,0,1,-5,5h-127a5,5,0,0,1,-5,-5v-8a5,5,0,0,1,5,-5z"></path><g id="node_text2" fill="black"><text id="kity_text_173" text-rendering="inherit" font-size="12" dy=".8em" y="21.70000420113405" x="462.5000334829092">环境光：AmbientLight</text></g></g><g id="minder_node7"><g id="node_expander2" display="none" style="cursor: pointer;"><path id="kity_path_390" fill="white" stroke="gray" d="M457.50003315508366,55.50000490248203A6,6,0,1,1,445.50003315508366,55.50000490248203A6,6,0,1,1,457.50003315508366,55.50000490248203"></path><path id="kity_path_391" fill="none" stroke="gray"></path></g><path id="node_outline3" fill="none" stroke="none" d="M462.5000334829092,46.50000490248203h139a5,5,0,0,1,5,5v8a5,5,0,0,1,-5,5h-139a5,5,0,0,1,-5,-5v-8a5,5,0,0,1,5,-5z"></path><g id="node_text3" fill="black"><text id="kity_text_175" text-rendering="inherit" font-size="12" dy=".8em" y="47.70000497599443" x="462.5000334829092">平行光：DirectionalLight</text></g></g><g id="minder_node8"><g id="node_expander4" display="none" style="cursor: pointer;"><path id="kity_path_396" fill="white" stroke="gray" d="M406.5000316351652,81.50000567734241A6,6,0,1,1,394.5000316351652,81.50000567734241A6,6,0,1,1,406.5000316351652,81.50000567734241"></path><path id="kity_path_397" fill="none" stroke="gray"></path></g><path id="node_outline5" fill="none" stroke="none" d="M411.50003196299076,72.50000567734241h114a5,5,0,0,1,5,5v8a5,5,0,0,1,-5,5h-114a5,5,0,0,1,-5,-5v-8a5,5,0,0,1,5,-5z"></path><g id="node_text5" fill="black"><text id="kity_text_179" text-rendering="inherit" font-size="12" dy=".8em" y="73.70000575085481" x="411.50003196299076">坐标轴：AxesHelper</text></g></g><g id="minder_node9"><g id="node_expander7" style="cursor: pointer;"><path id="kity_path_405" fill="white" stroke="gray" d="M309.50002874433994,107.5000064522028A6,6,0,1,1,297.50002874433994,107.5000064522028A6,6,0,1,1,309.50002874433994,107.5000064522028"></path><path id="kity_path_406" fill="none" stroke="gray" d="M299.00002874433994,107.5000064522028L308.00002874433994,107.5000064522028"></path></g><path id="node_outline8" fill="none" stroke="none" d="M314.5000290721655,98.5000064522028h25a5,5,0,0,1,5,5v8a5,5,0,0,1,-5,5h-25a5,5,0,0,1,-5,-5v-8a5,5,0,0,1,5,-5z"></path><g id="node_text8" fill="black"><text id="kity_text_185" text-rendering="inherit" font-size="12" dy=".8em" y="99.7000065257152" x="314.5000290721655">镜头</text></g></g><g id="minder_node10"><g id="node_expander6" display="none" style="cursor: pointer;"><path id="kity_path_402" fill="white" stroke="gray" d="M360.5000302642584,107.5000064522028A6,6,0,1,1,348.5000302642584,107.5000064522028A6,6,0,1,1,360.5000302642584,107.5000064522028"></path><path id="kity_path_403" fill="none" stroke="gray"></path></g><path id="node_outline7" fill="none" stroke="none" d="M365.50003059208393,98.5000064522028h334a5,5,0,0,1,5,5v8a5,5,0,0,1,-5,5h-334a5,5,0,0,1,-5,-5v-8a5,5,0,0,1,5,-5z"></path><g id="node_text7" fill="black"><text id="kity_text_183" text-rendering="inherit" font-size="12" dy=".8em" y="99.7000065257152" x="365.50003059208393">PerspectiveCamera / Camera（实践用PerspectiveCamera）</text></g></g><g id="minder_node11"><g id="node_expander10" style="cursor: pointer;"><path id="kity_path_414" fill="white" stroke="gray" d="M309.50002874433994,133.50000722706318A6,6,0,1,1,297.50002874433994,133.50000722706318A6,6,0,1,1,309.50002874433994,133.50000722706318"></path><path id="kity_path_415" fill="none" stroke="gray" d="M299.00002874433994,133.50000722706318L308.00002874433994,133.50000722706318"></path></g><path id="node_outline11" fill="none" stroke="none" d="M314.5000290721655,124.50000722706318h116a5,5,0,0,1,5,5v8a5,5,0,0,1,-5,5h-116a5,5,0,0,1,-5,-5v-8a5,5,0,0,1,5,-5z"></path><g id="node_text11" fill="black"><text id="kity_text_191" text-rendering="inherit" font-size="12" dy=".8em" y="125.70000730057558" x="314.5000290721655">Three的Canva生成器</text></g></g><g id="minder_node12"><g id="node_expander9" style="cursor: pointer;"><path id="kity_path_411" fill="white" stroke="gray" d="M451.5000329762697,133.50000722706318A6,6,0,1,1,439.5000329762697,133.50000722706318A6,6,0,1,1,451.5000329762697,133.50000722706318"></path><path id="kity_path_412" fill="none" stroke="gray" d="M441.0000329762697,133.50000722706318L450.0000329762697,133.50000722706318"></path></g><path id="node_outline10" fill="none" stroke="none" d="M456.50003330409527,124.50000722706318h95a5,5,0,0,1,5,5v8a5,5,0,0,1,-5,5h-95a5,5,0,0,1,-5,-5v-8a5,5,0,0,1,5,-5z"></path><g id="node_text10" fill="black"><text id="kity_text_189" text-rendering="inherit" font-size="12" dy=".8em" y="125.70000730057558" x="456.50003330409527">WebGLRenderer</text></g></g><g id="minder_node13"><g id="node_expander8" display="none" style="cursor: pointer;"><path id="kity_path_408" fill="white" stroke="gray" d="M572.5000365823507,133.50000722706318A6,6,0,1,1,560.5000365823507,133.50000722706318A6,6,0,1,1,572.5000365823507,133.50000722706318"></path><path id="kity_path_409" fill="none" stroke="gray"></path></g><path id="node_outline9" fill="none" stroke="none" d="M577.5000369101763,124.50000722706318h225a5,5,0,0,1,5,5v8a5,5,0,0,1,-5,5h-225a5,5,0,0,1,-5,-5v-8a5,5,0,0,1,5,-5z"></path><g id="node_text9" fill="black"><text id="kity_text_187" text-rendering="inherit" font-size="12" dy=".8em" y="125.70000730057558" x="577.5000369101763">生成Canvas Dom Append 到指定Dom中</text></g></g><g id="minder_node14"><g id="node_expander12" style="cursor: pointer;"><path id="kity_path_420" fill="white" stroke="gray" d="M304.50002859532833,156.5000079125166A6,6,0,1,1,292.50002859532833,156.5000079125166A6,6,0,1,1,304.50002859532833,156.5000079125166"></path><path id="kity_path_421" fill="none" stroke="gray" d="M294.00002859532833,156.5000079125166L303.00002859532833,156.5000079125166"></path></g><path id="node_outline13" fill="none" stroke="none" d="M309.5000289231539,147.5000079125166h127a5,5,0,0,1,5,5v8a5,5,0,0,1,-5,5h-127a5,5,0,0,1,-5,-5v-8a5,5,0,0,1,5,-5z"></path><g id="node_text13" fill="black"><text id="kity_text_195" text-rendering="inherit" font-size="12" dy=".8em" y="148.700007986029" x="309.5000289231539">控制器：OrbitControls</text></g></g><g id="minder_node15"><g id="node_expander11" display="none" style="cursor: pointer;"><path id="kity_path_417" fill="white" stroke="gray" d="M457.50003315508366,156.5000079125166A6,6,0,1,1,445.50003315508366,156.5000079125166A6,6,0,1,1,457.50003315508366,156.5000079125166"></path><path id="kity_path_418" fill="none" stroke="gray"></path></g><path id="node_outline12" fill="none" stroke="none" d="M462.5000334829092,147.5000079125166h648a5,5,0,0,1,5,5v8a5,5,0,0,1,-5,5h-648a5,5,0,0,1,-5,-5v-8a5,5,0,0,1,5,-5z"></path><g id="node_text12" fill="black"><text id="kity_text_193" text-rendering="inherit" font-size="12" dy=".8em" y="148.700007986029" x="462.5000334829092">构造需要camara和renderer父级的dom，用于监听键盘鼠标进行控制：new OrbitControls(camera, containerRef.value)</text></g></g><g id="minder_node16"><g id="node_expander14" style="cursor: pointer;"><path id="kity_path_426" fill="white" stroke="gray" d="M309.50002874433994,185.50000877678394A6,6,0,1,1,297.50002874433994,185.50000877678394A6,6,0,1,1,309.50002874433994,185.50000877678394"></path><path id="kity_path_427" fill="none" stroke="gray" d="M299.00002874433994,185.50000877678394L308.00002874433994,185.50000877678394"></path></g><path id="node_outline15" fill="none" stroke="none" d="M314.5000290721655,176.50000877678394h94a5,5,0,0,1,5,5v8a5,5,0,0,1,-5,5h-94a5,5,0,0,1,-5,-5v-8a5,5,0,0,1,5,-5z"></path><g id="node_text15" fill="black"><text id="kity_text_199" text-rendering="inherit" font-size="12" dy=".8em" y="177.70000885029634" x="314.5000290721655">animate（自写）</text></g></g><g id="minder_node17"><g id="node_expander13" display="none" style="cursor: pointer;"><path id="kity_path_423" fill="white" stroke="gray" d="M429.50003232061863,185.50000877678394A6,6,0,1,1,417.50003232061863,185.50000877678394A6,6,0,1,1,429.50003232061863,185.50000877678394"></path><path id="kity_path_424" fill="none" stroke="gray"></path></g><path id="node_outline14" fill="none" stroke="none" d="M434.5000326484442,176.50000877678394h795a5,5,0,0,1,5,5v8a5,5,0,0,1,-5,5h-795a5,5,0,0,1,-5,-5v-8a5,5,0,0,1,5,-5z"></path><g id="node_text14" fill="black"><text id="kity_text_197" text-rendering="inherit" font-size="12" dy=".8em" y="177.70000885029634" x="434.5000326484442">通过requestAnimationFrame帧动画持续刷新renderer，以及其他的状态更新，如混合空间，场景、物件旋转等：renderer.render( scene, camera );</text></g></g><g id="minder_node18"><g id="node_expander20" style="cursor: pointer;"><path id="kity_path_444" fill="white" stroke="gray" d="M234.50002650916576,223.5000099092722A6,6,0,1,1,222.50002650916576,223.5000099092722A6,6,0,1,1,234.50002650916576,223.5000099092722"></path><path id="kity_path_445" fill="none" stroke="gray" d="M224.00002650916576,223.5000099092722L233.00002650916576,223.5000099092722"></path></g><path id="node_outline21" fill="none" stroke="none" d="M239.5000268369913,214.5000099092722h25a5,5,0,0,1,5,5v8a5,5,0,0,1,-5,5h-25a5,5,0,0,1,-5,-5v-8a5,5,0,0,1,5,-5z"></path><g id="node_text21" fill="black"><text id="kity_text_211" text-rendering="inherit" font-size="12" dy=".8em" y="215.7000099827846" x="239.5000268369913">其他</text></g></g><g id="minder_node19"><g id="node_expander17" style="cursor: pointer;"><path id="kity_path_435" fill="white" stroke="gray" d="M285.5000280290842,210.500009521842A6,6,0,1,1,273.5000280290842,210.500009521842A6,6,0,1,1,285.5000280290842,210.500009521842"></path><path id="kity_path_436" fill="none" stroke="gray" d="M275.0000280290842,210.500009521842L284.0000280290842,210.500009521842"></path></g><path id="node_outline18" fill="none" stroke="none" d="M290.50002835690975,201.500009521842h80a5,5,0,0,1,5,5v8a5,5,0,0,1,-5,5h-80a5,5,0,0,1,-5,-5v-8a5,5,0,0,1,5,-5z"></path><g id="node_text18" fill="black"><text id="kity_text_205" text-rendering="inherit" font-size="12" dy=".8em" y="202.7000095953544" x="290.50002835690975">时间轴：Clock</text></g></g><g id="minder_node20"><g id="node_expander16" display="none" style="cursor: pointer;"><path id="kity_path_432" fill="white" stroke="gray" d="M391.5000311881304,210.500009521842A6,6,0,1,1,379.5000311881304,210.500009521842A6,6,0,1,1,391.5000311881304,210.500009521842"></path><path id="kity_path_433" fill="none" stroke="gray"></path></g><path id="node_outline17" fill="none" stroke="none" d="M396.5000315159559,201.500009521842h48a5,5,0,0,1,5,5v8a5,5,0,0,1,-5,5h-48a5,5,0,0,1,-5,-5v-8a5,5,0,0,1,5,-5z"></path><g id="node_text17" fill="black"><text id="kity_text_203" text-rendering="inherit" font-size="12" dy=".8em" y="202.7000095953544" x="396.5000315159559">用于动画</text></g></g><g id="minder_node21"><g id="node_expander19" style="cursor: pointer;"><path id="kity_path_441" fill="white" stroke="gray" d="M285.5000280290842,236.50001029670238A6,6,0,1,1,273.5000280290842,236.50001029670238A6,6,0,1,1,285.5000280290842,236.50001029670238"></path><path id="kity_path_442" fill="none" stroke="gray" d="M275.0000280290842,236.50001029670238L284.0000280290842,236.50001029670238"></path></g><path id="node_outline20" fill="none" stroke="none" d="M290.50002835690975,227.50001029670238h93a5,5,0,0,1,5,5v8a5,5,0,0,1,-5,5h-93a5,5,0,0,1,-5,-5v-8a5,5,0,0,1,5,-5z"></path><g id="node_text20" fill="black"><text id="kity_text_209" text-rendering="inherit" font-size="12" dy=".8em" y="228.70001037021478" x="290.50002835690975">混合空间：Mixer</text></g></g><g id="minder_node22"><g id="node_expander18" display="none" style="cursor: pointer;"><path id="kity_path_438" fill="white" stroke="gray" d="M404.50003157556057,236.50001029670238A6,6,0,1,1,392.50003157556057,236.50001029670238A6,6,0,1,1,404.50003157556057,236.50001029670238"></path><path id="kity_path_439" fill="none" stroke="gray"></path></g><path id="node_outline19" fill="none" stroke="none" d="M409.5000319033861,227.50001029670238h228a5,5,0,0,1,5,5v8a5,5,0,0,1,-5,5h-228a5,5,0,0,1,-5,-5v-8a5,5,0,0,1,5,-5z"></path><g id="node_text19" fill="black"><text id="kity_text_207" text-rendering="inherit" font-size="12" dy=".8em" y="228.70001037021478" x="409.5000319033861">用于处理模型的骨骼体动效，实现模型动画</text></g></g><g id="minder_node23"><g id="node_expander53" style="cursor: pointer;"><path id="kity_path_543" fill="white" stroke="gray" d="M120.50002311170101,462.50001703202724A6,6,0,1,1,108.50002311170101,462.50001703202724A6,6,0,1,1,120.50002311170101,462.50001703202724"></path><path id="kity_path_544" fill="none" stroke="gray" d="M110.00002311170101,462.50001703202724L119.00002311170101,462.50001703202724"></path></g><path id="node_outline54" fill="rgb(239, 238, 246)" stroke="rgb(123, 115, 191)" d="M124.50002391636372,449.50001703202724h91a3,3,0,0,1,3,3v20a3,3,0,0,1,-3,3h-91a3,3,0,0,1,-3,-3v-20a3,3,0,0,1,3,-3z" stroke-width="1"></path><g id="node_text54" fill="black"><text id="kity_text_278" text-rendering="inherit" font-size="14" dy=".8em" y="453.4000170648098" x="141.50002391636372">模型加载</text></g></g><g id="minder_node24"><g id="node_expander38" style="cursor: pointer;"><path id="kity_path_498" fill="white" stroke="gray" d="M234.50002650916576,317.5000127106905A6,6,0,1,1,222.50002650916576,317.5000127106905A6,6,0,1,1,234.50002650916576,317.5000127106905"></path><path id="kity_path_499" fill="none" stroke="gray" d="M224.00002650916576,317.5000127106905L233.00002650916576,317.5000127106905"></path></g><path id="node_outline39" fill="none" stroke="none" d="M239.5000268369913,308.5000127106905h49a5,5,0,0,1,5,5v8a5,5,0,0,1,-5,5h-49a5,5,0,0,1,-5,-5v-8a5,5,0,0,1,5,-5z"></path><g id="node_text39" fill="black"><text id="kity_text_247" text-rendering="inherit" font-size="12" dy=".8em" y="309.7000127842029" x="239.5000268369913">模型准备</text></g></g><g id="minder_node25"><g id="node_expander22" display="none" style="cursor: pointer;"><path id="kity_path_450" fill="white" stroke="gray" d="M309.50002874433994,270.50001130998135A6,6,0,1,1,297.50002874433994,270.50001130998135A6,6,0,1,1,309.50002874433994,270.50001130998135"></path><path id="kity_path_451" fill="none" stroke="gray"></path></g><path id="node_outline23" fill="none" stroke="none" d="M314.5000290721655,261.50001130998135h73a5,5,0,0,1,5,5v8a5,5,0,0,1,-5,5h-73a5,5,0,0,1,-5,-5v-8a5,5,0,0,1,5,-5z"></path><g id="node_text23" fill="black"><text id="kity_text_215" text-rendering="inherit" font-size="12" dy=".8em" y="262.70001138349375" x="314.5000290721655">场景搭建完成</text></g></g><g id="minder_node26"><g id="node_expander37" style="cursor: pointer;"><path id="kity_path_495" fill="white" stroke="gray" d="M309.50002874433994,364.50001411139965A6,6,0,1,1,297.50002874433994,364.50001411139965A6,6,0,1,1,309.50002874433994,364.50001411139965"></path><path id="kity_path_496" fill="none" stroke="gray" d="M299.00002874433994,364.50001411139965L308.00002874433994,364.50001411139965"></path></g><path id="node_outline38" fill="none" stroke="none" d="M314.5000290721655,355.50001411139965h73a5,5,0,0,1,5,5v8a5,5,0,0,1,-5,5h-73a5,5,0,0,1,-5,-5v-8a5,5,0,0,1,5,-5z"></path><g id="node_text38" fill="black"><text id="kity_text_245" text-rendering="inherit" font-size="12" dy=".8em" y="356.70001418491205" x="314.5000290721655">模型文件准备</text></g></g><g id="minder_node27"><g id="node_expander24" style="cursor: pointer;"><path id="kity_path_456" fill="white" stroke="gray" d="M408.50003169476986,296.5000120848417A6,6,0,1,1,396.50003169476986,296.5000120848417A6,6,0,1,1,408.50003169476986,296.5000120848417"></path><path id="kity_path_457" fill="none" stroke="gray" d="M398.00003169476986,296.5000120848417L407.00003169476986,296.5000120848417"></path></g><path id="node_outline25" fill="none" stroke="none" d="M413.5000320225954,287.5000120848417h49a5,5,0,0,1,5,5v8a5,5,0,0,1,-5,5h-49a5,5,0,0,1,-5,-5v-8a5,5,0,0,1,5,-5z"></path><g id="node_text25" fill="black"><text id="kity_text_219" text-rendering="inherit" font-size="12" dy=".8em" y="288.7000121583541" x="413.5000320225954">资源网站</text></g></g><g id="minder_node28"><g id="node_expander23" display="none" style="cursor: pointer;"><path id="kity_path_453" fill="white" stroke="gray" d="M483.50003392994404,296.5000120848417A6,6,0,1,1,471.50003392994404,296.5000120848417A6,6,0,1,1,483.50003392994404,296.5000120848417"></path><path id="kity_path_454" fill="none" stroke="gray"></path></g><path id="node_outline24" fill="none" stroke="none" d="M488.5000342577696,287.5000120848417h131a5,5,0,0,1,5,5v8a5,5,0,0,1,-5,5h-131a5,5,0,0,1,-5,-5v-8a5,5,0,0,1,5,-5z"></path><g id="node_text24" fill="black"><text id="kity_text_217" text-rendering="inherit" font-size="12" dy=".8em" y="288.7000121583541" x="488.5000342577696">https://sketchfab.com/</text></g></g><g id="minder_node29"><g id="node_expander27" style="cursor: pointer;"><path id="kity_path_465" fill="white" stroke="gray" d="M408.50003169476986,335.5000132471323A6,6,0,1,1,396.50003169476986,335.5000132471323A6,6,0,1,1,408.50003169476986,335.5000132471323"></path><path id="kity_path_466" fill="none" stroke="gray" d="M398.00003169476986,335.5000132471323L407.00003169476986,335.5000132471323"></path></g><path id="node_outline28" fill="none" stroke="none" d="M413.5000320225954,326.5000132471323h49a5,5,0,0,1,5,5v8a5,5,0,0,1,-5,5h-49a5,5,0,0,1,-5,-5v-8a5,5,0,0,1,5,-5z"></path><g id="node_text28" fill="black"><text id="kity_text_225" text-rendering="inherit" font-size="12" dy=".8em" y="327.7000133206447" x="413.5000320225954">制作软件</text></g></g><g id="minder_node30"><g id="node_expander25" display="none" style="cursor: pointer;"><path id="kity_path_459" fill="white" stroke="gray" d="M483.50003392994404,322.5000128597021A6,6,0,1,1,471.50003392994404,322.5000128597021A6,6,0,1,1,483.50003392994404,322.5000128597021"></path><path id="kity_path_460" fill="none" stroke="gray"></path></g><path id="node_outline26" fill="none" stroke="none" d="M488.5000342577696,313.5000128597021h45a5,5,0,0,1,5,5v8a5,5,0,0,1,-5,5h-45a5,5,0,0,1,-5,-5v-8a5,5,0,0,1,5,-5z"></path><g id="node_text26" fill="black"><text id="kity_text_221" text-rendering="inherit" font-size="12" dy=".8em" y="314.7000129332145" x="488.5000342577696">blender</text></g></g><g id="minder_node31"><g id="node_expander26" display="none" style="cursor: pointer;"><path id="kity_path_462" fill="white" stroke="gray" d="M483.50003392994404,348.5000136345625A6,6,0,1,1,471.50003392994404,348.5000136345625A6,6,0,1,1,483.50003392994404,348.5000136345625"></path><path id="kity_path_463" fill="none" stroke="gray"></path></g><path id="node_outline27" fill="none" stroke="none" d="M488.5000342577696,339.5000136345625h39a5,5,0,0,1,5,5v8a5,5,0,0,1,-5,5h-39a5,5,0,0,1,-5,-5v-8a5,5,0,0,1,5,-5z"></path><g id="node_text27" fill="black"><text id="kity_text_223" text-rendering="inherit" font-size="12" dy=".8em" y="340.7000137080749" x="488.5000342577696">3dmax</text></g></g><g id="minder_node32"><g id="node_expander36" style="cursor: pointer;"><path id="kity_path_492" fill="white" stroke="gray" d="M408.50003169476986,432.5000161379576A6,6,0,1,1,396.50003169476986,432.5000161379576A6,6,0,1,1,408.50003169476986,432.5000161379576"></path><path id="kity_path_493" fill="none" stroke="gray" d="M398.00003169476986,432.5000161379576L407.00003169476986,432.5000161379576"></path></g><path id="node_outline37" fill="none" stroke="none" d="M413.5000320225954,423.5000161379576h49a5,5,0,0,1,5,5v8a5,5,0,0,1,-5,5h-49a5,5,0,0,1,-5,-5v-8a5,5,0,0,1,5,-5z"></path><g id="node_text37" fill="black"><text id="kity_text_243" text-rendering="inherit" font-size="12" dy=".8em" y="424.70001621147" x="413.5000320225954">格式转换</text></g></g><g id="minder_node33"><g id="node_expander35" style="cursor: pointer;"><path id="kity_path_489" fill="white" stroke="gray" d="M483.50003392994404,432.5000161379576A6,6,0,1,1,471.50003392994404,432.5000161379576A6,6,0,1,1,483.50003392994404,432.5000161379576"></path><path id="kity_path_490" fill="none" stroke="gray" d="M473.00003392994404,432.5000161379576L482.00003392994404,432.5000161379576"></path></g><path id="node_outline36" fill="none" stroke="none" d="M488.5000342577696,423.5000161379576h110a5,5,0,0,1,5,5v8a5,5,0,0,1,-5,5h-110a5,5,0,0,1,-5,-5v-8a5,5,0,0,1,5,-5z"></path><g id="node_text36" fill="black"><text id="kity_text_241" text-rendering="inherit" font-size="12" dy=".8em" y="424.70001621147" x="488.5000342577696">osg，osgb倾斜摄影</text></g></g><g id="minder_node34"><g id="node_expander31" style="cursor: pointer;"><path id="kity_path_477" fill="white" stroke="gray" d="M619.5000379830599,400.50001518428326A6,6,0,1,1,607.5000379830599,400.50001518428326A6,6,0,1,1,619.5000379830599,400.50001518428326"></path><path id="kity_path_478" fill="none" stroke="gray" d="M609.0000379830599,400.50001518428326L618.0000379830599,400.50001518428326"></path></g><path id="node_outline32" fill="none" stroke="none" d="M624.5000383108854,391.50001518428326h59a5,5,0,0,1,5,5v8a5,5,0,0,1,-5,5h-59a5,5,0,0,1,-5,-5v-8a5,5,0,0,1,5,-5z"></path><g id="node_text32" fill="black"><text id="kity_text_233" text-rendering="inherit" font-size="12" dy=".8em" y="392.70001525779566" x="624.5000383108854">转换为OBJ</text></g></g><g id="minder_node35"><g id="node_expander28" display="none" style="cursor: pointer;"><path id="kity_path_468" fill="white" stroke="gray" d="M704.5000405162573,374.5000144094229A6,6,0,1,1,692.5000405162573,374.5000144094229A6,6,0,1,1,704.5000405162573,374.5000144094229"></path><path id="kity_path_469" fill="none" stroke="gray"></path></g><path id="node_outline29" fill="none" stroke="none" d="M709.5000408440828,365.5000144094229h208a5,5,0,0,1,5,5v8a5,5,0,0,1,-5,5h-208a5,5,0,0,1,-5,-5v-8a5,5,0,0,1,5,-5z"></path><g id="node_text29" fill="black"><text id="kity_text_227" text-rendering="inherit" font-size="12" dy=".8em" y="366.7000144829353" x="709.5000408440828">通过OpenSceneGraph转换为OBJ格式</text></g></g><g id="minder_node36"><g id="node_expander29" display="none" style="cursor: pointer;"><path id="kity_path_471" fill="white" stroke="gray" d="M704.5000405162573,400.50001518428326A6,6,0,1,1,692.5000405162573,400.50001518428326A6,6,0,1,1,704.5000405162573,400.50001518428326"></path><path id="kity_path_472" fill="none" stroke="gray"></path></g><path id="node_outline30" fill="none" stroke="none" d="M709.5000408440828,391.50001518428326h459a5,5,0,0,1,5,5v8a5,5,0,0,1,-5,5h-459a5,5,0,0,1,-5,-5v-8a5,5,0,0,1,5,-5z"></path><g id="node_text30" fill="black"><text id="kity_text_229" text-rendering="inherit" font-size="12" dy=".8em" y="392.70001525779566" x="709.5000408440828">实践使用：OpenSceneGraph-3.6.4-VC2017-64-Release （Win10 VC++应用程序）</text></g></g><g id="minder_node37"><g id="node_expander30" display="none" style="cursor: pointer;"><path id="kity_path_474" fill="white" stroke="gray" d="M704.5000405162573,426.50001595914364A6,6,0,1,1,692.5000405162573,426.50001595914364A6,6,0,1,1,704.5000405162573,426.50001595914364"></path><path id="kity_path_475" fill="none" stroke="gray"></path></g><path id="node_outline31" fill="none" stroke="none" d="M709.5000408440828,417.50001595914364h458a5,5,0,0,1,5,5v8a5,5,0,0,1,-5,5h-458a5,5,0,0,1,-5,-5v-8a5,5,0,0,1,5,-5z"></path><g id="node_text31" fill="black"><text id="kity_text_231" text-rendering="inherit" font-size="12" dy=".8em" y="418.70001603265604" x="709.5000408440828">https://www.openscenegraph.com/index.php/download-section/stable-releases</text></g></g><g id="minder_node38"><g id="node_expander34" style="cursor: pointer;"><path id="kity_path_486" fill="white" stroke="gray" d="M619.5000379830599,465.5000171214342A6,6,0,1,1,607.5000379830599,465.5000171214342A6,6,0,1,1,619.5000379830599,465.5000171214342"></path><path id="kity_path_487" fill="none" stroke="gray" d="M609.0000379830599,465.5000171214342L618.0000379830599,465.5000171214342"></path></g><path id="node_outline35" fill="none" stroke="none" d="M624.5000383108854,456.5000171214342h78a5,5,0,0,1,5,5v8a5,5,0,0,1,-5,5h-78a5,5,0,0,1,-5,-5v-8a5,5,0,0,1,5,-5z"></path><g id="node_text35" fill="black"><text id="kity_text_239" text-rendering="inherit" font-size="12" dy=".8em" y="457.7000171949466" x="624.5000383108854">转换为3DTiles</text></g></g><g id="minder_node39"><g id="node_expander32" display="none" style="cursor: pointer;"><path id="kity_path_480" fill="white" stroke="gray" d="M723.5000410825014,452.500016734004A6,6,0,1,1,711.5000410825014,452.500016734004A6,6,0,1,1,723.5000410825014,452.500016734004"></path><path id="kity_path_481" fill="none" stroke="gray"></path></g><path id="node_outline33" fill="none" stroke="none" d="M728.500041410327,443.500016734004h183a5,5,0,0,1,5,5v8a5,5,0,0,1,-5,5h-183a5,5,0,0,1,-5,-5v-8a5,5,0,0,1,5,-5z"></path><g id="node_text33" fill="black"><text id="kity_text_235" text-rendering="inherit" font-size="12" dy=".8em" y="444.7000168075164" x="728.500041410327">通过3dtiles官方推荐转换程序转换</text></g></g><g id="minder_node40"><g id="node_expander33" display="none" style="cursor: pointer;"><path id="kity_path_483" fill="white" stroke="gray" d="M723.5000410825014,478.5000175088644A6,6,0,1,1,711.5000410825014,478.5000175088644A6,6,0,1,1,723.5000410825014,478.5000175088644"></path><path id="kity_path_484" fill="none" stroke="gray"></path></g><path id="node_outline34" fill="none" stroke="none" d="M728.500041410327,469.5000175088644h259a5,5,0,0,1,5,5v8a5,5,0,0,1,-5,5h-259a5,5,0,0,1,-5,-5v-8a5,5,0,0,1,5,-5z"></path><g id="node_text34" fill="black"><text id="kity_text_237" text-rendering="inherit" font-size="12" dy=".8em" y="470.7000175823768" x="728.500041410327">实践使用：https://github/fanvanzh/3dtiles.git</text></g></g><g id="minder_node41"><g id="node_expander52" style="cursor: pointer;"><path id="kity_path_540" fill="white" stroke="gray" d="M234.50002650916576,607.500021353364A6,6,0,1,1,222.50002650916576,607.500021353364A6,6,0,1,1,234.50002650916576,607.500021353364"></path><path id="kity_path_541" fill="none" stroke="gray" d="M224.00002650916576,607.500021353364L233.00002650916576,607.500021353364"></path></g><path id="node_outline53" fill="none" stroke="none" d="M239.5000268369913,598.500021353364h49a5,5,0,0,1,5,5v8a5,5,0,0,1,-5,5h-49a5,5,0,0,1,-5,-5v-8a5,5,0,0,1,5,-5z"></path><g id="node_text53" fill="black"><text id="kity_text_276" text-rendering="inherit" font-size="12" dy=".8em" y="599.7000214268764" x="239.5000268369913">模型加载</text></g></g><g id="minder_node42"><g id="node_expander49" style="cursor: pointer;"><path id="kity_path_531" fill="white" stroke="gray" d="M309.50002874433994,561.5000199824572A6,6,0,1,1,297.50002874433994,561.5000199824572A6,6,0,1,1,309.50002874433994,561.5000199824572"></path><path id="kity_path_532" fill="none" stroke="gray" d="M299.00002874433994,561.5000199824572L308.00002874433994,561.5000199824572"></path></g><path id="node_outline50" fill="none" stroke="none" d="M314.5000290721655,552.5000199824572h85a5,5,0,0,1,5,5v8a5,5,0,0,1,-5,5h-85a5,5,0,0,1,-5,-5v-8a5,5,0,0,1,5,-5z"></path><g id="node_text50" fill="black"><text id="kity_text_270" text-rendering="inherit" font-size="12" dy=".8em" y="553.7000200559696" x="314.5000290721655">解析及渲染工具</text></g></g><g id="minder_node43"><g id="node_expander40" style="cursor: pointer;"><path id="kity_path_504" fill="white" stroke="gray" d="M420.5000320523977,505.5000183135271A6,6,0,1,1,408.5000320523977,505.5000183135271A6,6,0,1,1,420.5000320523977,505.5000183135271"></path><path id="kity_path_505" fill="none" stroke="gray" d="M410.0000320523977,505.5000183135271L419.0000320523977,505.5000183135271"></path></g><path id="node_outline41" fill="none" stroke="none" d="M425.5000323802233,496.5000183135271h144a5,5,0,0,1,5,5v8a5,5,0,0,1,-5,5h-144a5,5,0,0,1,-5,-5v-8a5,5,0,0,1,5,-5z"></path><g id="node_text41" fill="black"><text id="kity_text_251" text-rendering="inherit" font-size="12" dy=".8em" y="497.7000183870395" x="425.5000323802233">OBJ格式加载：OBJLoader</text></g></g><g id="minder_node44"><g id="node_expander39" display="none" style="cursor: pointer;"><path id="kity_path_501" fill="white" stroke="gray" d="M590.5000371187925,505.5000183135271A6,6,0,1,1,578.5000371187925,505.5000183135271A6,6,0,1,1,590.5000371187925,505.5000183135271"></path><path id="kity_path_502" fill="none" stroke="gray"></path></g><path id="node_outline40" fill="none" stroke="none" d="M595.5000374466181,496.5000183135271h102a5,5,0,0,1,5,5v8a5,5,0,0,1,-5,5h-102a5,5,0,0,1,-5,-5v-8a5,5,0,0,1,5,-5z"></path><g id="node_text40" fill="black"><text id="kity_text_249" text-rendering="inherit" font-size="12" dy=".8em" y="497.7000183870395" x="595.5000374466181">THREE.OBJLoader</text></g></g><g id="minder_node45"><g id="node_expander42" style="cursor: pointer;"><path id="kity_path_510" fill="white" stroke="gray" d="M420.5000320523977,531.5000190883875A6,6,0,1,1,408.5000320523977,531.5000190883875A6,6,0,1,1,420.5000320523977,531.5000190883875"></path><path id="kity_path_511" fill="none" stroke="gray" d="M410.0000320523977,531.5000190883875L419.0000320523977,531.5000190883875"></path></g><path id="node_outline43" fill="none" stroke="none" d="M425.5000323802233,522.5000190883875h147a5,5,0,0,1,5,5v8a5,5,0,0,1,-5,5h-147a5,5,0,0,1,-5,-5v-8a5,5,0,0,1,5,-5z"></path><g id="node_text43" fill="black"><text id="kity_text_255" text-rendering="inherit" font-size="12" dy=".8em" y="523.7000191619" x="425.5000323802233">gltf模型加载：GLTFLoader</text></g></g><g id="minder_node46"><g id="node_expander41" display="none" style="cursor: pointer;"><path id="kity_path_507" fill="white" stroke="gray" d="M593.5000372081995,531.5000190883875A6,6,0,1,1,581.5000372081995,531.5000190883875A6,6,0,1,1,593.5000372081995,531.5000190883875"></path><path id="kity_path_508" fill="none" stroke="gray"></path></g><path id="node_outline42" fill="none" stroke="none" d="M598.500037536025,522.5000190883875h304a5,5,0,0,1,5,5v8a5,5,0,0,1,-5,5h-304a5,5,0,0,1,-5,-5v-8a5,5,0,0,1,5,-5z"></path><g id="node_text42" fill="black"><text id="kity_text_253" text-rendering="inherit" font-size="12" dy=".8em" y="523.7000191619" x="598.500037536025">引用路径：three/examples/jsm/loaders/GLTFLoader.js</text></g></g><g id="minder_node47"><g id="node_expander44" style="cursor: pointer;"><path id="kity_path_516" fill="white" stroke="gray" d="M420.5000320523977,557.5000198632479A6,6,0,1,1,408.5000320523977,557.5000198632479A6,6,0,1,1,420.5000320523977,557.5000198632479"></path><path id="kity_path_517" fill="none" stroke="gray" d="M410.0000320523977,557.5000198632479L419.0000320523977,557.5000198632479"></path></g><path id="node_outline45" fill="none" stroke="none" d="M425.5000323802233,548.5000198632479h167a5,5,0,0,1,5,5v8a5,5,0,0,1,-5,5h-167a5,5,0,0,1,-5,-5v-8a5,5,0,0,1,5,-5z"></path><g id="node_text45" fill="black"><text id="kity_text_259" text-rendering="inherit" font-size="12" dy=".8em" y="549.7000199367603" x="425.5000323802233">FBX格式模型加载：FBXLoader</text></g></g><g id="minder_node48"><g id="node_expander43" display="none" style="cursor: pointer;"><path id="kity_path_513" fill="white" stroke="gray" d="M613.500037804246,557.5000198632479A6,6,0,1,1,601.500037804246,557.5000198632479A6,6,0,1,1,613.500037804246,557.5000198632479"></path><path id="kity_path_514" fill="none" stroke="gray"></path></g><path id="node_outline44" fill="none" stroke="none" d="M618.5000381320715,548.5000198632479h298a5,5,0,0,1,5,5v8a5,5,0,0,1,-5,5h-298a5,5,0,0,1,-5,-5v-8a5,5,0,0,1,5,-5z"></path><g id="node_text44" fill="black"><text id="kity_text_257" text-rendering="inherit" font-size="12" dy=".8em" y="549.7000199367603" x="618.5000381320715">引用路径：three/examples/jsm/loaders/FBXLoader.js</text></g></g><g id="minder_node49"><g id="node_expander46" style="cursor: pointer;"><path id="kity_path_522" fill="white" stroke="gray" d="M420.5000320523977,583.5000206381083A6,6,0,1,1,408.5000320523977,583.5000206381083A6,6,0,1,1,420.5000320523977,583.5000206381083"></path><path id="kity_path_523" fill="none" stroke="gray" d="M410.0000320523977,583.5000206381083L419.0000320523977,583.5000206381083"></path></g><path id="node_outline47" fill="none" stroke="none" d="M425.5000323802233,574.5000206381083h210a5,5,0,0,1,5,5v8a5,5,0,0,1,-5,5h-210a5,5,0,0,1,-5,-5v-8a5,5,0,0,1,5,-5z"></path><g id="node_text47" fill="black"><text id="kity_text_263" text-rendering="inherit" font-size="12" dy=".8em" y="575.7000207116207" x="425.5000323802233">DRACO格式模型加载：DRACOLoader</text></g></g><g id="minder_node50"><g id="node_expander45" display="none" style="cursor: pointer;"><path id="kity_path_519" fill="white" stroke="gray" d="M656.5000390857458,583.5000206381083A6,6,0,1,1,644.5000390857458,583.5000206381083A6,6,0,1,1,656.5000390857458,583.5000206381083"></path><path id="kity_path_520" fill="none" stroke="gray"></path></g><path id="node_outline46" fill="none" stroke="none" d="M661.5000394135714,574.5000206381083h319a5,5,0,0,1,5,5v8a5,5,0,0,1,-5,5h-319a5,5,0,0,1,-5,-5v-8a5,5,0,0,1,5,-5z"></path><g id="node_text46" fill="black"><text id="kity_text_261" text-rendering="inherit" font-size="12" dy=".8em" y="575.7000207116207" x="661.5000394135714">引用路径：three/examples/jsm/loaders/DRACOLoader.js</text></g></g><g id="minder_node51"><g id="node_expander48" style="cursor: pointer;"><path id="kity_path_528" fill="white" stroke="gray" d="M420.5000320523977,618.5000216811895A6,6,0,1,1,408.5000320523977,618.5000216811895A6,6,0,1,1,420.5000320523977,618.5000216811895"></path><path id="kity_path_529" fill="none" stroke="gray" d="M410.0000320523977,618.5000216811895L419.0000320523977,618.5000216811895"></path></g><path id="node_outline49" fill="none" stroke="none" d="M425.5000323802233,609.5000216811895h41a5,5,0,0,1,5,5v8a5,5,0,0,1,-5,5h-41a5,5,0,0,1,-5,-5v-8a5,5,0,0,1,5,-5z"></path><g id="node_text49" fill="black"><text id="kity_text_268" text-rendering="inherit" font-size="12" dy=".8em" y="610.700021754702" x="425.5000323802233">3DTiles</text></g></g><g id="minder_node52"><g id="node_expander47" display="none" style="cursor: pointer;"><path id="kity_path_525" fill="white" stroke="gray" d="M487.5000340491533,618.5000216811895A6,6,0,1,1,475.5000340491533,618.5000216811895A6,6,0,1,1,487.5000340491533,618.5000216811895"></path><path id="kity_path_526" fill="none" stroke="gray"></path></g><path id="node_outline48" fill="none" stroke="none" d="M492.5000343769789,600.5000216811895h311a5,5,0,0,1,5,5v26a5,5,0,0,1,-5,5h-311a5,5,0,0,1,-5,-5v-26a5,5,0,0,1,5,-5z"></path><g id="node_text48" fill="black"><text id="kity_text_265" text-rendering="inherit" font-size="12" dy=".8em" y="601.700021754702" x="492.5000343769789">通过3d-tiles-renderer实现渲染：</text><text id="kity_text_266" text-rendering="inherit" font-size="12" dy=".8em" y="619.700021754702" x="492.5000343769789">https://github.com/NASA-AMMOS/3DTilesRendererJS</text></g></g><g id="minder_node53"><g id="node_expander51" style="cursor: pointer;"><path id="kity_path_537" fill="white" stroke="gray" d="M309.50002874433994,653.5000227242708A6,6,0,1,1,297.50002874433994,653.5000227242708A6,6,0,1,1,309.50002874433994,653.5000227242708"></path><path id="kity_path_538" fill="none" stroke="gray" d="M299.00002874433994,653.5000227242708L308.00002874433994,653.5000227242708"></path></g><path id="node_outline52" fill="none" stroke="none" d="M314.5000290721655,644.5000227242708h25a5,5,0,0,1,5,5v8a5,5,0,0,1,-5,5h-25a5,5,0,0,1,-5,-5v-8a5,5,0,0,1,5,-5z"></path><g id="node_text52" fill="black"><text id="kity_text_274" text-rendering="inherit" font-size="12" dy=".8em" y="645.7000227977833" x="314.5000290721655">流程</text></g></g><g id="minder_node54"><g id="node_expander50" display="none" style="cursor: pointer;"><path id="kity_path_534" fill="white" stroke="gray" d="M360.5000302642584,653.5000227242708A6,6,0,1,1,348.5000302642584,653.5000227242708A6,6,0,1,1,360.5000302642584,653.5000227242708"></path><path id="kity_path_535" fill="none" stroke="gray"></path></g><path id="node_outline51" fill="none" stroke="none" d="M365.50003059208393,644.5000227242708h217a5,5,0,0,1,5,5v8a5,5,0,0,1,-5,5h-217a5,5,0,0,1,-5,-5v-8a5,5,0,0,1,5,-5z"></path><g id="node_text51" fill="black"><text id="kity_text_272" text-rendering="inherit" font-size="12" dy=".8em" y="645.7000227977833" x="365.50003059208393">异步加载文件流-&gt;解析-&gt;添加到scene中</text></g></g><g id="minder_node55"><g id="node_expander71" style="cursor: pointer;"><path id="kity_path_597" fill="white" stroke="gray" d="M120.50002311170101,845.5000284463167A6,6,0,1,1,108.50002311170101,845.5000284463167A6,6,0,1,1,120.50002311170101,845.5000284463167"></path><path id="kity_path_598" fill="none" stroke="gray" d="M110.00002311170101,845.5000284463167L119.00002311170101,845.5000284463167"></path></g><path id="node_outline72" fill="rgb(239, 238, 246)" stroke="rgb(123, 115, 191)" d="M124.50002391636372,832.5000284463167h161a3,3,0,0,1,3,3v20a3,3,0,0,1,-3,3h-161a3,3,0,0,1,-3,-3v-20a3,3,0,0,1,3,-3z" stroke-width="1"></path><g id="node_text72" fill="black"><text id="kity_text_314" text-rendering="inherit" font-size="14" dy=".8em" y="836.4000284790993" x="141.50002391636372">点、线、面及几何体</text></g></g><g id="minder_node56"><g id="node_expander70" style="cursor: pointer;"><path id="kity_path_594" fill="white" stroke="gray" d="M304.50002859532833,845.5000284463167A6,6,0,1,1,292.50002859532833,845.5000284463167A6,6,0,1,1,304.50002859532833,845.5000284463167"></path><path id="kity_path_595" fill="none" stroke="gray" d="M294.00002859532833,845.5000284463167L303.00002859532833,845.5000284463167"></path></g><path id="node_outline71" fill="none" stroke="none" d="M309.5000289231539,836.5000284463167h49a5,5,0,0,1,5,5v8a5,5,0,0,1,-5,5h-49a5,5,0,0,1,-5,-5v-8a5,5,0,0,1,5,-5z"></path><g id="node_text71" fill="black"><text id="kity_text_312" text-rendering="inherit" font-size="12" dy=".8em" y="837.7000285198292" x="309.5000289231539">基本概念</text></g></g><g id="minder_node57"><g id="node_expander60" style="cursor: pointer;"><path id="kity_path_564" fill="white" stroke="gray" d="M379.5000308305025,718.5000246614218A6,6,0,1,1,367.5000308305025,718.5000246614218A6,6,0,1,1,379.5000308305025,718.5000246614218"></path><path id="kity_path_565" fill="none" stroke="gray" d="M369.0000308305025,718.5000246614218L378.0000308305025,718.5000246614218"></path></g><path id="node_outline61" fill="none" stroke="none" d="M384.50003115832806,709.5000246614218h83a5,5,0,0,1,5,5v8a5,5,0,0,1,-5,5h-83a5,5,0,0,1,-5,-5v-8a5,5,0,0,1,5,-5z"></path><g id="node_text61" fill="black"><text id="kity_text_292" text-rendering="inherit" font-size="12" dy=".8em" y="710.7000247349342" x="384.50003115832806">材质：material</text></g></g><g id="minder_node58"><g id="node_expander54" display="none" style="cursor: pointer;"><path id="kity_path_546" fill="white" stroke="gray" d="M488.50003407895565,686.5000237077475A6,6,0,1,1,476.50003407895565,686.5000237077475A6,6,0,1,1,488.50003407895565,686.5000237077475"></path><path id="kity_path_547" fill="none" stroke="gray"></path></g><path id="node_outline55" fill="none" stroke="none" d="M493.5000344067812,677.5000237077475h241a5,5,0,0,1,5,5v8a5,5,0,0,1,-5,5h-241a5,5,0,0,1,-5,-5v-8a5,5,0,0,1,5,-5z"></path><g id="node_text55" fill="black"><text id="kity_text_280" text-rendering="inherit" font-size="12" dy=".8em" y="678.7000237812599" x="493.5000344067812">点材质：new PointsMaterial({...properties})</text></g></g><g id="minder_node59"><g id="node_expander55" display="none" style="cursor: pointer;"><path id="kity_path_549" fill="white" stroke="gray" d="M488.50003407895565,712.5000244826078A6,6,0,1,1,476.50003407895565,712.5000244826078A6,6,0,1,1,488.50003407895565,712.5000244826078"></path><path id="kity_path_550" fill="none" stroke="gray"></path></g><path id="node_outline56" fill="none" stroke="none" d="M493.5000344067812,703.5000244826078h259a5,5,0,0,1,5,5v8a5,5,0,0,1,-5,5h-259a5,5,0,0,1,-5,-5v-8a5,5,0,0,1,5,-5z"></path><g id="node_text56" fill="black"><text id="kity_text_282" text-rendering="inherit" font-size="12" dy=".8em" y="704.7000245561203" x="493.5000344067812">线材质：new&#xa0;LineBasicMaterial({...properties})</text></g></g><g id="minder_node60"><g id="node_expander59" style="cursor: pointer;"><path id="kity_path_561" fill="white" stroke="gray" d="M488.50003407895565,751.5000256448984A6,6,0,1,1,476.50003407895565,751.5000256448984A6,6,0,1,1,488.50003407895565,751.5000256448984"></path><path id="kity_path_562" fill="none" stroke="gray" d="M478.00003407895565,751.5000256448984L487.00003407895565,751.5000256448984"></path></g><path id="node_outline60" fill="none" stroke="none" d="M493.5000344067812,742.5000256448984h36a5,5,0,0,1,5,5v8a5,5,0,0,1,-5,5h-36a5,5,0,0,1,-5,-5v-8a5,5,0,0,1,5,-5z"></path><g id="node_text60" fill="black"><text id="kity_text_290" text-rendering="inherit" font-size="12" dy=".8em" y="743.7000257184109" x="493.5000344067812">面材质</text></g></g><g id="minder_node61"><g id="node_expander56" display="none" style="cursor: pointer;"><path id="kity_path_552" fill="white" stroke="gray" d="M550.5000359266996,738.5000252574682A6,6,0,1,1,538.5000359266996,738.5000252574682A6,6,0,1,1,550.5000359266996,738.5000252574682"></path><path id="kity_path_553" fill="none" stroke="gray"></path></g><path id="node_outline57" fill="none" stroke="none" d="M555.5000362545252,729.5000252574682h219a5,5,0,0,1,5,5v8a5,5,0,0,1,-5,5h-219a5,5,0,0,1,-5,-5v-8a5,5,0,0,1,5,-5z"></path><g id="node_text57" fill="black"><text id="kity_text_284" text-rendering="inherit" font-size="12" dy=".8em" y="730.7000253309807" x="555.5000362545252">new&#xa0;MeshBasicMaterial({...properties})</text></g></g><g id="minder_node62"><g id="node_expander58" style="cursor: pointer;"><path id="kity_path_558" fill="white" stroke="gray" d="M550.5000359266996,764.5000260323286A6,6,0,1,1,538.5000359266996,764.5000260323286A6,6,0,1,1,550.5000359266996,764.5000260323286"></path><path id="kity_path_559" fill="none" stroke="gray" d="M540.0000359266996,764.5000260323286L549.0000359266996,764.5000260323286"></path></g><path id="node_outline59" fill="none" stroke="none" d="M555.5000362545252,755.5000260323286h409a5,5,0,0,1,5,5v8a5,5,0,0,1,-5,5h-409a5,5,0,0,1,-5,-5v-8a5,5,0,0,1,5,-5z"></path><g id="node_text59" fill="black"><text id="kity_text_288" text-rendering="inherit" font-size="12" dy=".8em" y="756.7000261058411" x="555.5000362545252">实践地球、天空、地表等材质：new&#xa0;MeshStandardMaterial({...properties})</text></g></g><g id="minder_node63"><g id="node_expander57" display="none" style="cursor: pointer;"><path id="kity_path_555" fill="white" stroke="gray" d="M985.5000488907099,764.5000260323286A6,6,0,1,1,973.5000488907099,764.5000260323286A6,6,0,1,1,985.5000488907099,764.5000260323286"></path><path id="kity_path_556" fill="none" stroke="gray"></path></g><path id="node_outline58" fill="none" stroke="none" d="M990.5000492185354,755.5000260323286h366a5,5,0,0,1,5,5v8a5,5,0,0,1,-5,5h-366a5,5,0,0,1,-5,-5v-8a5,5,0,0,1,5,-5z"></path><g id="node_text58" fill="black"><text id="kity_text_286" text-rendering="inherit" font-size="12" dy=".8em" y="756.7000261058411" x="990.5000492185354">特性：比MeshBasicMaterial属性较多，如支持法线贴图、AO贴图等</text></g></g><g id="minder_node64"><g id="node_expander64" style="cursor: pointer;"><path id="kity_path_576" fill="white" stroke="gray" d="M379.5000308305025,816.5000275820494A6,6,0,1,1,367.5000308305025,816.5000275820494A6,6,0,1,1,379.5000308305025,816.5000275820494"></path><path id="kity_path_577" fill="none" stroke="gray" d="M369.0000308305025,816.5000275820494L378.0000308305025,816.5000275820494"></path></g><path id="node_outline65" fill="none" stroke="none" d="M384.50003115832806,807.5000275820494h105a5,5,0,0,1,5,5v8a5,5,0,0,1,-5,5h-105a5,5,0,0,1,-5,-5v-8a5,5,0,0,1,5,-5z"></path><g id="node_text65" fill="black"><text id="kity_text_300" text-rendering="inherit" font-size="12" dy=".8em" y="808.7000276555618" x="384.50003115832806">几何体：geometry</text></g></g><g id="minder_node65"><g id="node_expander61" display="none" style="cursor: pointer;"><path id="kity_path_567" fill="white" stroke="gray" d="M510.50003473460674,790.500026807189A6,6,0,1,1,498.50003473460674,790.500026807189A6,6,0,1,1,510.50003473460674,790.500026807189"></path><path id="kity_path_568" fill="none" stroke="gray"></path></g><path id="node_outline62" fill="none" stroke="none" d="M515.5000350624323,781.500026807189h373a5,5,0,0,1,5,5v8a5,5,0,0,1,-5,5h-373a5,5,0,0,1,-5,-5v-8a5,5,0,0,1,5,-5z"></path><g id="node_text62" fill="black"><text id="kity_text_294" text-rendering="inherit" font-size="12" dy=".8em" y="782.7000268807014" x="515.5000350624323">球体：SphereGeometry(radius, widthSegments, heightSegments)</text></g></g><g id="minder_node66"><g id="node_expander62" display="none" style="cursor: pointer;"><path id="kity_path_570" fill="white" stroke="gray" d="M510.50003473460674,816.5000275820494A6,6,0,1,1,498.50003473460674,816.5000275820494A6,6,0,1,1,510.50003473460674,816.5000275820494"></path><path id="kity_path_571" fill="none" stroke="gray"></path></g><path id="node_outline63" fill="none" stroke="none" d="M515.5000350624323,807.5000275820494h472a5,5,0,0,1,5,5v8a5,5,0,0,1,-5,5h-472a5,5,0,0,1,-5,-5v-8a5,5,0,0,1,5,-5z"></path><g id="node_text63" fill="black"><text id="kity_text_296" text-rendering="inherit" font-size="12" dy=".8em" y="808.7000276555618" x="515.5000350624323">缓冲区几何体（可以将不同的几何体结合，通用性，渲染性能较高）：BufferGeometry()</text></g></g><g id="minder_node67"><g id="node_expander63" display="none" style="cursor: pointer;"><path id="kity_path_573" fill="white" stroke="gray" d="M510.50003473460674,842.5000283569098A6,6,0,1,1,498.50003473460674,842.5000283569098A6,6,0,1,1,510.50003473460674,842.5000283569098"></path><path id="kity_path_574" fill="none" stroke="gray"></path></g><path id="node_outline64" fill="none" stroke="none" d="M515.5000350624323,833.5000283569098h244a5,5,0,0,1,5,5v8a5,5,0,0,1,-5,5h-244a5,5,0,0,1,-5,-5v-8a5,5,0,0,1,5,-5z"></path><g id="node_text64" fill="black"><text id="kity_text_298" text-rendering="inherit" font-size="12" dy=".8em" y="834.7000284304222" x="515.5000350624323">盒子几何体：BoxGeometry(xLen,yLen,zLen)</text></g></g><g id="minder_node68"><g id="node_expander65" display="none" style="cursor: pointer;"><path id="kity_path_579" fill="white" stroke="gray" d="M379.5000308305025,868.5000291317701A6,6,0,1,1,367.5000308305025,868.5000291317701A6,6,0,1,1,379.5000308305025,868.5000291317701"></path><path id="kity_path_580" fill="none" stroke="gray"></path></g><path id="node_outline66" fill="none" stroke="none" d="M384.50003115832806,859.5000291317701h98a5,5,0,0,1,5,5v8a5,5,0,0,1,-5,5h-98a5,5,0,0,1,-5,-5v-8a5,5,0,0,1,5,-5z"></path><g id="node_text66" fill="black"><text id="kity_text_302" text-rendering="inherit" font-size="12" dy=".8em" y="860.7000292052826" x="384.50003115832806">空间向量：Vetor3</text></g></g><g id="minder_node69"><g id="node_expander66" display="none" style="cursor: pointer;"><path id="kity_path_582" fill="white" stroke="gray" d="M379.5000308305025,894.5000299066305A6,6,0,1,1,367.5000308305025,894.5000299066305A6,6,0,1,1,379.5000308305025,894.5000299066305"></path><path id="kity_path_583" fill="none" stroke="gray"></path></g><path id="node_outline67" fill="none" stroke="none" d="M384.50003115832806,885.5000299066305h76a5,5,0,0,1,5,5v8a5,5,0,0,1,-5,5h-76a5,5,0,0,1,-5,-5v-8a5,5,0,0,1,5,-5z"></path><g id="node_text67" fill="black"><text id="kity_text_304" text-rendering="inherit" font-size="12" dy=".8em" y="886.700029980143" x="384.50003115832806">纹理：texture</text></g></g><g id="minder_node70"><g id="node_expander67" display="none" style="cursor: pointer;"><path id="kity_path_585" fill="white" stroke="gray" d="M379.5000308305025,920.5000306814909A6,6,0,1,1,367.5000308305025,920.5000306814909A6,6,0,1,1,379.5000308305025,920.5000306814909"></path><path id="kity_path_586" fill="none" stroke="gray"></path></g><path id="node_outline68" fill="none" stroke="none" d="M384.50003115832806,911.5000306814909h236a5,5,0,0,1,5,5v8a5,5,0,0,1,-5,5h-236a5,5,0,0,1,-5,-5v-8a5,5,0,0,1,5,-5z"></path><g id="node_text68" fill="black"><text id="kity_text_306" text-rendering="inherit" font-size="12" dy=".8em" y="912.7000307550034" x="384.50003115832806">点对象：Points(geometry, pointsMaterial)</text></g></g><g id="minder_node71"><g id="node_expander68" display="none" style="cursor: pointer;"><path id="kity_path_588" fill="white" stroke="gray" d="M379.5000308305025,946.5000314563513A6,6,0,1,1,367.5000308305025,946.5000314563513A6,6,0,1,1,379.5000308305025,946.5000314563513"></path><path id="kity_path_589" fill="none" stroke="gray"></path></g><path id="node_outline69" fill="none" stroke="none" d="M384.50003115832806,937.5000314563513h217a5,5,0,0,1,5,5v8a5,5,0,0,1,-5,5h-217a5,5,0,0,1,-5,-5v-8a5,5,0,0,1,5,-5z"></path><g id="node_text69" fill="black"><text id="kity_text_308" text-rendering="inherit" font-size="12" dy=".8em" y="938.7000315298637" x="384.50003115832806">线：Line(geometry,&#xa0;LineBasicMaterial)</text></g></g><g id="minder_node72"><g id="node_expander69" display="none" style="cursor: pointer;"><path id="kity_path_591" fill="white" stroke="gray" d="M379.5000308305025,972.5000322312117A6,6,0,1,1,367.5000308305025,972.5000322312117A6,6,0,1,1,379.5000308305025,972.5000322312117"></path><path id="kity_path_592" fill="none" stroke="gray"></path></g><path id="node_outline70" fill="none" stroke="none" d="M384.50003115832806,963.5000322312117h375a5,5,0,0,1,5,5v8a5,5,0,0,1,-5,5h-375a5,5,0,0,1,-5,-5v-8a5,5,0,0,1,5,-5z"></path><g id="node_text70" fill="black"><text id="kity_text_310" text-rendering="inherit" font-size="12" dy=".8em" y="964.7000323047241" x="384.50003115832806">面：Mesh(geometry, MeshBasicMaterial / MeshStandardMaterial)</text></g></g></g></g></svg>